<svg id="Layer_3" height="512" viewBox="0 0 64 64" width="512" xmlns="http://www.w3.org/2000/svg" data-name="Layer 3"><path d="m4 20a4 4 0 0 1 4-4h48a4 4 0 0 1 4 4v36h-56z" fill="#91989d"/><path d="m60 20a4 4 0 0 0 -4-4h-48a3.955 3.955 0 0 0 -2 .555v33.445h54z" fill="#aab1b7"/><path d="m8 20h48v28h-48z" fill="#7fcdf2"/><path d="m10 20h46v26h-46z" fill="#a2ddf4"/><path d="m62 52v3a3 3 0 0 1 -3 3h-54a3 3 0 0 1 -3-3v-3h23l3 2h8l3-2z" fill="#43525b"/><path d="m36 54h-8l-3-2h-23v1a3 3 0 0 0 3 3h54a3 3 0 0 0 3-3v-1h-23z" fill="#69737a"/><g fill="#fff"><path d="m23 45h-4v-2h3v-2h-2a1 1 0 0 1 -1-1v-4a1 1 0 0 1 1-1h4v2h-3v2h2a1 1 0 0 1 1 1v4a1 1 0 0 1 -1 1z"/><path d="m29 45a3 3 0 0 1 -3-3v-4a3 3 0 0 1 6 0v1h-2v-1a1 1 0 0 0 -2 0v4a1 1 0 0 0 1 1 1 1 0 0 0 1-1h-1v-2h2a1 1 0 0 1 1 1v1a3 3 0 0 1 -3 3z"/><path d="m38 45h-2a2 2 0 0 0 -2-2v-2a4 4 0 0 1 4 4z"/><path d="m42 45h-2a6.006 6.006 0 0 0 -6-6v-2a8.009 8.009 0 0 1 8 8z"/><path d="m46 45h-2a10.011 10.011 0 0 0 -10-10v-2a12.013 12.013 0 0 1 12 12z"/></g><circle cx="32" cy="18" fill="#f6bf44" r="12"/><path d="m32 6a11.93 11.93 0 0 0 -7.419 2.581 11.988 11.988 0 0 0 16.838 16.838 11.988 11.988 0 0 0 -9.419-19.419z" fill="#fad66f"/><path d="m29 23v-4h2l-4-6.001-4 6.001h2v4z" fill="#dd4334"/><path d="m39 14v4h2l-4 6-4-6h2v-4z" fill="#4fa04b"/><path d="m62 51h-1v-31a5.006 5.006 0 0 0 -5-5h-11.363a12.985 12.985 0 0 0 -25.274 0h-11.363a5.006 5.006 0 0 0 -5 5v31h-1a1 1 0 0 0 -1 1v3a4 4 0 0 0 4 4h54a4 4 0 0 0 4-4v-3a1 1 0 0 0 -1-1zm-30-20a13.014 13.014 0 0 0 12.637-10h10.363v26h-46v-26h10.363a13.014 13.014 0 0 0 12.637 10zm0-24a11 11 0 1 1 -11 11 11.013 11.013 0 0 1 11-11zm-27 13a3 3 0 0 1 3-3h11.051c-.026.331-.051.662-.051 1s.025.669.051 1h-11.051a1 1 0 0 0 -1 1v28a1 1 0 0 0 1 1h48a1 1 0 0 0 1-1v-28a1 1 0 0 0 -1-1h-11.051c.026-.331.051-.662.051-1s-.025-.669-.051-1h11.051a3 3 0 0 1 3 3v31h-20a1.006 1.006 0 0 0 -.555.168l-2.745 1.832h-7.4l-2.748-1.832a1.006 1.006 0 0 0 -.552-.168h-20zm56 35a2 2 0 0 1 -2 2h-54a2 2 0 0 1 -2-2v-2h21.7l2.748 1.832a1.006 1.006 0 0 0 .552.168h8a1.006 1.006 0 0 0 .555-.168l2.745-1.832h21.7z"/><path d="m20 41h2v2h-3v2h4a1 1 0 0 0 1-1v-4a1 1 0 0 0 -1-1h-2v-2h3v-2h-4a1 1 0 0 0 -1 1v4a1 1 0 0 0 1 1z"/><path d="m29 45a3 3 0 0 0 3-3v-1a1 1 0 0 0 -1-1h-2v2h1a1 1 0 0 1 -1 1 1 1 0 0 1 -1-1v-4a1 1 0 0 1 2 0v1h2v-1a3 3 0 0 0 -6 0v4a3 3 0 0 0 3 3z"/><path d="m36 45h2a4 4 0 0 0 -4-4v2a2 2 0 0 1 2 2z"/><path d="m40 45h2a8.009 8.009 0 0 0 -8-8v2a6.006 6.006 0 0 1 6 6z"/><path d="m44 45h2a12.013 12.013 0 0 0 -12-12v2a10.011 10.011 0 0 1 10 10z"/><path d="m25 24h4a1 1 0 0 0 1-1v-3h1a1 1 0 0 0 .832-1.555l-4-6a1.039 1.039 0 0 0 -1.664 0l-4 6a1 1 0 0 0 .832 1.555h1v3a1 1 0 0 0 1 1zm2-9.2 2.132 3.2h-.132a1 1 0 0 0 -1 1v3h-2v-3a1 1 0 0 0 -1-1h-.132z"/><path d="m36.168 24.555a1 1 0 0 0 1.664 0l4-6a1 1 0 0 0 -.832-1.555h-1v-3a1 1 0 0 0 -1-1h-4a1 1 0 0 0 -1 1v3h-1a1 1 0 0 0 -.832 1.555zm-1.168-5.555a1 1 0 0 0 1-1v-3h2v3a1 1 0 0 0 1 1h.131l-2.131 3.2-2.131-3.2z"/></svg>